<svg xmlns="http://www.w3.org/2000/svg" viewBox="0 0 1024 1024">
<path d="M486.4 768c-20.531 0-39.782-7.987-54.323-22.477-29.952-29.952-29.952-78.643 0-108.595 20.582-20.582 217.702-156.877 256.973-184.013 10.189-7.014 23.91-5.786 32.614 2.97s9.984 22.477 2.97 32.614c-27.085 39.322-163.379 236.39-184.013 256.973-14.49 14.49-33.792 22.477-54.323 22.477zM601.037 576.563c-68.864 48.384-124.723 88.576-132.762 96.563-9.984 9.984-9.984 26.214 0 36.198 4.813 4.813 11.264 7.475 18.125 7.475s13.261-2.662 18.125-7.475c7.936-8.038 48.179-63.898 96.512-132.762zM830.362 296.090c-91.853-91.853-214.016-142.49-343.962-142.49s-252.058 50.586-343.91 142.49-142.438 214.016-142.438 343.91c0 96.717 28.314 190.157 81.92 270.234 4.762 7.117 12.749 11.366 21.299 11.366h766.413c8.55 0 16.538-4.25 21.299-11.366 53.606-80.077 81.92-173.517 81.92-270.234 0-129.946-50.586-252.058-142.438-343.91zM855.654 870.4h-738.56c-38.656-61.798-60.928-131.942-65.178-204.8h24.832c14.131 0 25.6-11.469 25.6-25.6s-11.469-25.6-25.6-25.6h-24.832c12.8-219.648 189.184-396.032 408.832-408.832v24.832c0 14.131 11.469 25.6 25.6 25.6s25.6-11.469 25.6-25.6v-24.832c219.648 12.8 396.032 189.184 408.832 408.832h-24.832c-14.131 0-25.6 11.469-25.6 25.6s11.469 25.6 25.6 25.6h24.832c-4.25 72.858-26.522 143.002-65.178 204.8z"></path>
</svg>
