<svg xmlns="http://www.w3.org/2000/svg" viewBox="0 0 1024 1024">
<path d="M914.125 289.075l-230.4-230.4c-4.813-4.813-11.315-7.475-18.125-7.475h-486.4c-42.342 0-76.8 34.458-76.8 76.8v819.2c0 42.342 34.458 76.8 76.8 76.8h665.6c42.342 0 76.8-34.458 76.8-76.8v-640c0-6.81-2.714-13.312-7.475-18.125zM859.802 307.2h-168.602c-14.131 0-25.6-11.469-25.6-25.6v-168.602l194.202 194.202zM844.8 972.8h-665.6c-14.131 0-25.6-11.469-25.6-25.6v-819.2c0-14.131 11.469-25.6 25.6-25.6h435.2v179.2c0 42.342 34.458 76.8 76.8 76.8h179.2v588.8c0 14.131-11.469 25.6-25.6 25.6zM435.2 844.8c-6.554 0-13.107-2.509-18.125-7.475l-102.4-102.4c-9.984-9.984-9.984-26.214 0-36.198s26.214-9.984 36.198 0l84.275 84.275 237.875-237.875c9.984-9.984 26.214-9.984 36.198 0s9.984 26.214 0 36.198l-256 256c-5.018 5.018-11.571 7.475-18.125 7.475z"></path>
</svg>
